<svg t="1701249799228" class="icon" viewBox="0 0 1024 1024" version="1.1" xmlns="http://www.w3.org/2000/svg" p-id="19451" width="32" height="32"><path d="M306.4 802.2c-1.3 0-2.7-0.2-4-0.6-45.9-12.8-87.8-36.1-124.6-69.4-29.2-26.4-55.2-59-77.4-96.9C62.8 571 49.6 514.1 49 511.7c-1.8-8.1 3.2-16.1 11.3-18 8.1-1.8 16.1 3.2 18 11.3 0.1 0.5 13 55.5 48.4 116 46.7 79.7 108.5 130.8 183.7 151.8 8 2.2 12.6 10.5 10.4 18.5-1.8 6.5-7.9 10.9-14.4 10.9z" fill="#ffffff" p-id="19452"></path><path d="M488.3 920.8c-16.8 0-33.6-3.6-49.2-10.9-50.7-23.7-96.1-57.5-134.9-100.6-30.9-34.3-57.8-74.5-79.8-119.5-37.4-76.6-47.9-139.8-48.3-142.5-1.3-8.2 4.2-15.9 12.4-17.2 8.2-1.3 15.9 4.2 17.2 12.4 0.1 0.6 10.4 62.2 46.1 134.8 32.6 66.3 93.7 155.7 200.1 205.3 23.5 11 50.6 10.8 74.4-0.5 197.3-94 260.9-308.1 281.2-427.3 5.6-33.1-9.9-66-38.8-82-31-17.2-76.5-46.5-117.1-88.8-46.2-48.2-76.6-102.8-90.3-162.3-1.9-8.1 3.2-16.1 11.3-18 8.1-1.9 16.1 3.2 18 11.3 28.7 124.7 133 198.7 192.6 231.7 40 22.1 61.6 67.7 53.8 113.3-9.9 58.1-31.3 145.3-76.6 230.3-53.9 101-128.4 174.7-221.2 219-16.2 7.6-33.6 11.5-50.9 11.5z" fill="#ffffff" p-id="19453"></path><path d="M837.4 850.9c-1.1 0-2.3-0.1-3.4-0.4-4.5-1-109.9-26.5-136.6-104.4-2.7-7.8 1.5-16.4 9.3-19 7.8-2.7 16.4 1.5 19 9.3 13.9 40.7 58.6 64.5 88 76-21-86 22.8-173.8 65.3-259.1 30.6-61.4 59.4-119.4 64.1-174.3 8.3-98.6-8.4-154.6-23.9-184.3-16.3-31.1-34.5-39.9-34.6-40l0.2 0.1 11.9-27.5c2.6 1.1 26.4 12.2 47.3 50.1 26.6 48.4 36.4 117 29.1 204.1-5.1 60.6-36.6 123.9-67.1 185.1-44.3 88.9-90 180.8-54.7 263.3 2.2 5.2 1.3 11.2-2.3 15.5-3 3.6-7.2 5.5-11.6 5.5zM643.4 507.5c-36.8 0-71.2-14.9-89.8-38.9-5.1-6.5-3.9-16 2.6-21 6.5-5.1 16-3.9 21 2.6 13.1 16.8 38.4 27.3 66.1 27.3 29 0 55.7-11.7 67.9-29.8 4.6-6.9 14-8.7 20.8-4 6.9 4.6 8.7 14 4 20.8-17.7 26.5-53.3 43-92.6 43zM490.3 790.4c-32.2 0-61.3-12.6-77.7-33.8-5.1-6.5-3.9-16 2.6-21 6.5-5.1 16-3.9 21 2.6 10.6 13.7 31.3 22.2 54 22.2 23.8 0 45.6-9.5 55.5-24.2 4.6-6.9 14-8.7 20.8-4 6.9 4.6 8.7 14 4 20.8-15.4 23.1-46.2 37.4-80.2 37.4zM319.5 478.1c-6 0-11.5-3.6-13.8-9.2l-43.2-102.7-100.2-41.8c-5.5-2.3-9.1-7.7-9.2-13.6-0.1-6 3.4-11.4 8.8-13.9l99-44.7 40.4-103.9c2.2-5.7 7.7-9.5 13.8-9.6 6.1-0.1 11.7 3.5 14 9.2l43.2 102.7 100.2 41.8c5.5 2.3 9.1 7.7 9.2 13.6 0.1 6-3.4 11.4-8.8 13.9l-99 44.7-40.4 103.9c-2.2 5.7-7.7 9.5-13.8 9.6h-0.2zM205.7 310l74 30.9c3.6 1.5 6.5 4.4 8 8l31.2 74.2 29.2-75.1c1.4-3.7 4.2-6.6 7.8-8.2l73.1-33-74-30.9c-3.6-1.5-6.5-4.4-8-8l-31.2-74.2-29.2 75.1c-1.4 3.7-4.2 6.6-7.8 8.2l-73.1 33z" fill="#ffffff" p-id="19454"></path></svg>