<svg width="30" height="31" viewBox="0 0 30 31" fill="none" xmlns="http://www.w3.org/2000/svg">
<circle opacity="0.2" cx="15" cy="15.4097" r="15" fill="black"/>
<path d="M17.8125 22.1597H19.7812C20.3034 22.1597 20.8042 21.9522 21.1734 21.583C21.5426 21.2138 21.75 20.7131 21.75 20.1909V18.2222" stroke="white" stroke-width="1.125" stroke-linecap="round" stroke-linejoin="round"/>
<path d="M21.75 12.5972V10.6284C21.75 10.1063 21.5426 9.60551 21.1734 9.2363C20.8042 8.86709 20.3034 8.65967 19.7812 8.65967H17.8125" stroke="white" stroke-width="1.125" stroke-linecap="round" stroke-linejoin="round"/>
<path d="M12.1875 22.1597H10.2188C9.69661 22.1597 9.19585 21.9522 8.82663 21.583C8.45742 21.2138 8.25 20.7131 8.25 20.1909V18.2222" stroke="white" stroke-width="1.125" stroke-linecap="round" stroke-linejoin="round"/>
<path d="M8.25 12.5972V10.6284C8.25 10.1063 8.45742 9.60551 8.82663 9.2363C9.19585 8.86709 9.69661 8.65967 10.2188 8.65967H12.1875" stroke="white" stroke-width="1.125" stroke-linecap="round" stroke-linejoin="round"/>
</svg>
