<svg t="1701250843806" class="icon" viewBox="0 0 1025 1024" version="1.1" xmlns="http://www.w3.org/2000/svg" p-id="37378" width="32" height="32"><path d="M512.002 1024c-282.764 0-512-229.236-512-512s229.236-512 512-512c282.763 0 512 229.236 512 512s-229.237 512-512 512z m0-960c-247.43 0-448 200.57-448 448s200.57 448 448 448 448-200.57 448-448-200.57-448-448-448zM401.346 782.24c47.424 18.656 99.872 19.104 147.648 1.28 47.712-17.792 109.088-52.192 132.384-96.96 10.144-19.584 16.864-28.832 36.544-18.784 19.68 10.112 22.656 23.552 12.48 43.104-32.416 62.304-86.848 110.24-153.184 134.976C544.77 857.952 510.786 864 476.834 864c-35.648 0-70.816-7.872-105.056-19.936-21.216-7.488-44.064-49.504-32.576-73.312 9.568-19.872 41.568 3.36 62.144 11.488z m183.43-477.685c-29.543 10.44-46.306 14.131-72.771 14.131-30.34 0-52.63-3.878-92.961-14.321-5.144-1.335-17.66-4.555-20.867-5.351C368.017 291.532 345.52 288 320.002 288c-141.493 0-189.57 9.832-191.478 61.505 0.005 2.496 0 68.442 6.1 89.84 18.678 65.52 81.454 103.887 185.378 103.887 67.377 0 112.44-18.871 150.708-54.508 7.136-6.646 39.102-37.337 41.398-37.345 0.07 0 19.387 29.273 24.141 34.799 32.336 37.578 82.972 57.054 167.753 57.054 95.172 0 153.724-37.525 178.647-100.362 10.757-27.12 13.33-49.921 13.329-82.014 0-61.514-67.49-79.492-191.976-79.492-43.376 0-115.493 21.868-119.226 23.191z m247.202 56.02c0 24.85-1.83 41.078-8.82 58.7-14.99 37.793-49.574 59.957-119.156 59.957-67.377 0-100.14-12.602-119.24-34.798-2.836-3.296-15.593-22.3-17.64-25.26-14.254-20.624-30.264-31.875-55.22-31.794-20.469 0.066-36.828 8.118-53.143 22.814-5.861 5.28-26.501 26.884-31.666 31.694-26.764 24.924-56.422 37.344-107.091 37.344-77.595 0-112.533-22.187-124.415-59.369-4.943-15.467-6.062-58.094-3.35-58.927 2.27-0.698 68.863-8.936 127.765-8.936 19.43 0 37.21 2.791 62.765 9.131 2.99 0.742 15.034 3.841 20.234 5.19 45.15 11.691 72.012 16.365 109.004 16.365 34.962 0 58.3-5.138 94.096-17.788 3.863-1.37 62.942-19.534 97.9-19.534 83.94 0 127.977 11.73 127.977 15.21z" p-id="37379" fill="#ffffff"></path></svg>